<svg width="749" height="200" viewBox="0 0 749 200" fill="none" xmlns="http://www.w3.org/2000/svg">
<path d="M44.0984 199.403C43.9742 199.039 42.9902 194.454 41.9127 189.213C40.187 180.818 38.431 172.605 37.5834 168.964C37.3069 167.776 37.3235 167.773 44.2137 167.796L51.1212 167.82L54.6638 172.429L58.2065 177.037L73.8678 177.169L89.5292 177.301L93.1089 170.552C100.199 157.185 104.913 148.227 111.702 135.216C115.501 127.937 120.193 119.004 122.129 115.364C128.41 103.559 132.107 96.649 134.236 92.7351C135.383 90.6254 136.322 88.4324 136.322 87.8621C136.322 85.9986 132.014 74.9553 130.772 73.6353C130.105 72.9272 128.777 72.021 127.819 71.6218C125.27 70.5588 119.153 70.716 115.138 71.9479C113.252 72.5264 111.526 73.0029 111.303 73.0066C111.08 73.0066 110.897 67.8918 110.897 61.6318V50.25H125.368C139.394 50.25 139.922 50.2936 142.554 51.4927C144.09 52.1926 146.323 53.8799 147.693 55.3762C150.201 58.1147 150.716 59.2041 161.783 85.1842C172.51 110.366 183.263 135.31 184.376 137.593C185.049 138.976 185.673 139.49 186.832 139.62C189.122 139.876 190.379 139.442 194.029 137.134L197.32 135.052L198.142 137.514C198.593 138.868 199.599 141.621 200.378 143.631C201.732 147.13 201.753 147.345 200.877 148.66C198.957 151.54 190.498 159.205 186.09 162.059C180.728 165.531 172.528 169.534 171.954 168.96C171.556 168.562 165.71 155.369 154.834 130.326C151.644 122.981 148.913 116.966 148.764 116.96C148.615 116.96 148 117.96 147.397 119.198C146.153 121.751 127.418 157.79 116.36 178.902C112.314 186.627 108.273 194.369 107.381 196.107L105.758 199.267L90.0701 199.591C60.6982 200.196 44.3482 200.128 44.0984 199.399V199.403ZM185.092 198.796C184.64 198.22 175.271 177.099 175.271 176.657C175.271 176.531 176.792 175.746 178.652 174.912C200.562 165.087 216.028 145.647 221.607 120.922C223.623 111.987 223.939 98.8455 222.356 89.7562C219.411 72.8391 211.805 58.3479 199.664 46.523C188.641 35.7865 177.462 29.9145 161.734 26.5996C155.425 25.2699 140.683 25.2674 134.158 26.5996C110.013 31.5116 90.9 46.2729 80.2251 68.2524C77.7427 73.3638 74.4253 83.2623 73.3696 88.7079C72.1056 95.2284 71.729 104.274 72.4502 110.784C73.4106 119.451 76.8626 131.427 80.3343 138.137C82.4125 142.153 87.8927 150.622 90.231 153.432L92.1704 155.762L90.9508 157.932C90.28 159.125 88.4792 162.424 86.9487 165.263L84.1658 170.424H77.8527H71.5396L68.014 166.569C61.4286 159.369 54.1161 147.222 50.4157 137.338C48.2402 131.527 45.6382 120.917 44.8682 114.718C44.0351 108.01 44.4789 91.2557 45.6575 84.9285C49.6955 63.2493 60.1481 44.1563 76.5826 28.4397C82.7074 22.5826 84.1039 21.4841 91.9634 16.3411C102.496 9.44906 115.418 4.13243 127.937 1.53951C134.91 0.0953092 152.107 -0.48384 159.94 0.461852C171.615 1.87109 181.981 5.00478 193.162 10.5044C212.14 19.8399 227.992 35.1467 238.713 54.4888C248.307 71.799 252.751 94.9 250.219 114.309C247.273 136.891 238.54 155.654 223.713 171.258L218.468 176.777L227.839 176.758L237.211 176.738L239.915 173.214C245.101 166.46 244.639 166.718 251.504 166.718C255.936 166.718 257.497 166.891 257.5 167.38C257.5 168.672 251.423 198.223 251.082 198.554C250.425 199.193 185.589 199.435 185.092 198.801V198.796Z" fill="#1E90FF"/>
<path d="M317.719 53.3125H299.812V90H291.688V53.3125H273.75V45.1875H317.719V53.3125ZM367.625 85.9062C367.625 86.4896 367.521 87.0312 367.312 87.5312C367.104 88.0312 366.812 88.4688 366.438 88.8438C366.062 89.1979 365.625 89.4792 365.125 89.6875C364.625 89.8958 364.094 90 363.531 90H345.219C343.49 90 341.74 89.8125 339.969 89.4375C338.198 89.0625 336.479 88.4896 334.812 87.7188C333.167 86.9271 331.615 85.9271 330.156 84.7188C328.698 83.5104 327.417 82.0833 326.312 80.4375C325.229 78.7708 324.375 76.875 323.75 74.75C323.125 72.6042 322.812 70.2188 322.812 67.5938V45.1875H330.938V67.5938C330.938 69.8854 331.25 71.8229 331.875 73.4062C332.521 74.9896 333.333 76.3125 334.312 77.375C335.292 78.4375 336.365 79.2708 337.531 79.875C338.698 80.4792 339.802 80.9271 340.844 81.2188C341.906 81.5104 342.833 81.6979 343.625 81.7812C344.438 81.8438 344.969 81.875 345.219 81.875H359.5V45.1875H367.625V85.9062ZM421.75 63.9375C421.75 65.7917 421.521 67.4479 421.062 68.9062C420.604 70.3646 419.979 71.6562 419.188 72.7812C418.417 73.8854 417.521 74.8333 416.5 75.625C415.479 76.4167 414.406 77.0625 413.281 77.5625C412.177 78.0625 411.052 78.4271 409.906 78.6562C408.781 78.8854 407.719 79 406.719 79H388.344V70.875H406.719C407.76 70.7917 408.698 70.5833 409.531 70.25C410.385 69.8958 411.115 69.4271 411.719 68.8438C412.323 68.2604 412.792 67.5625 413.125 66.75C413.458 65.9167 413.625 64.9792 413.625 63.9375V60.25C413.521 59.2292 413.302 58.2917 412.969 57.4375C412.635 56.5833 412.177 55.8542 411.594 55.25C411.031 54.6458 410.344 54.1771 409.531 53.8438C408.719 53.4896 407.781 53.3125 406.719 53.3125H388.406C387.323 53.3125 386.5 53.5938 385.938 54.1562C385.375 54.7188 385.094 55.5312 385.094 56.5938V90H376.969V56.5938C376.969 54.5104 377.344 52.7396 378.094 51.2812C378.865 49.8229 379.812 48.6458 380.938 47.75C382.083 46.8542 383.323 46.2083 384.656 45.8125C385.99 45.3958 387.219 45.1875 388.344 45.1875H406.719C408.552 45.1875 410.198 45.4271 411.656 45.9062C413.115 46.3646 414.396 46.9896 415.5 47.7812C416.625 48.5521 417.573 49.4479 418.344 50.4688C419.135 51.4896 419.781 52.5625 420.281 53.6875C420.802 54.7917 421.177 55.9167 421.406 57.0625C421.635 58.1875 421.75 59.25 421.75 60.25V63.9375ZM469.875 90H432.812C432.229 90 431.688 89.8958 431.188 89.6875C430.688 89.4792 430.25 89.1979 429.875 88.8438C429.521 88.4688 429.24 88.0312 429.031 87.5312C428.823 87.0312 428.719 86.4896 428.719 85.9062V45.1875H436.844V81.875H469.875V90ZM575.781 90H546.469C545.719 90 544.906 89.9167 544.031 89.75C543.177 89.5625 542.323 89.2812 541.469 88.9062C540.635 88.5312 539.833 88.0521 539.062 87.4688C538.292 86.8646 537.604 86.1458 537 85.3125C536.417 84.4583 535.948 83.4792 535.594 82.375C535.24 81.25 535.062 79.9896 535.062 78.5938V56.5938C535.062 55.8438 535.146 55.0417 535.312 54.1875C535.5 53.3125 535.781 52.4583 536.156 51.625C536.531 50.7708 537.021 49.9583 537.625 49.1875C538.229 48.4167 538.948 47.7396 539.781 47.1562C540.635 46.5521 541.615 46.0729 542.719 45.7188C543.823 45.3646 545.073 45.1875 546.469 45.1875H575.781V53.3125H546.469C545.406 53.3125 544.594 53.5938 544.031 54.1562C543.469 54.7188 543.188 55.5521 543.188 56.6562V78.5938C543.188 79.6354 543.469 80.4479 544.031 81.0312C544.615 81.5938 545.427 81.875 546.469 81.875H575.781V90ZM674.125 60.25C674.125 62.1042 673.896 63.7604 673.438 65.2188C672.979 66.6771 672.354 67.9688 671.562 69.0938C670.792 70.1979 669.896 71.1458 668.875 71.9375C667.854 72.7292 666.781 73.3854 665.656 73.9062C664.552 74.4062 663.427 74.7708 662.281 75C661.156 75.2292 660.094 75.3438 659.094 75.3438L676.062 90H663.5L646.562 75.3438H640.719V67.2188H659.094C660.115 67.1354 661.042 66.9271 661.875 66.5938C662.729 66.2396 663.458 65.7708 664.062 65.1875C664.688 64.6042 665.167 63.9062 665.5 63.0938C665.833 62.2604 666 61.3125 666 60.25V55.125C666 54.6667 665.938 54.3229 665.812 54.0938C665.708 53.8438 665.562 53.6667 665.375 53.5625C665.208 53.4375 665.021 53.3646 664.812 53.3438C664.625 53.3229 664.448 53.3125 664.281 53.3125H637.469V90H629.344V49.2812C629.344 48.7188 629.448 48.1875 629.656 47.6875C629.865 47.1875 630.146 46.75 630.5 46.375C630.875 46 631.312 45.7083 631.812 45.5C632.312 45.2917 632.854 45.1875 633.438 45.1875H664.281C666.094 45.1875 667.625 45.5208 668.875 46.1875C670.125 46.8333 671.135 47.6562 671.906 48.6562C672.698 49.6354 673.26 50.6979 673.594 51.8438C673.948 52.9896 674.125 54.0625 674.125 55.0625V60.25ZM719.125 71.6875H693.469V63.5H719.125V71.6875ZM722.781 90H693.469C692.344 90 691.115 89.8021 689.781 89.4062C688.448 89.0104 687.208 88.3646 686.062 87.4688C684.938 86.5521 683.99 85.375 683.219 83.9375C682.469 82.4792 682.094 80.6979 682.094 78.5938V49.2812C682.094 48.7188 682.198 48.1875 682.406 47.6875C682.615 47.1875 682.896 46.75 683.25 46.375C683.625 46 684.062 45.7083 684.562 45.5C685.062 45.2917 685.604 45.1875 686.188 45.1875H722.781V53.3125H690.219V78.5938C690.219 79.6562 690.5 80.4688 691.062 81.0312C691.625 81.5938 692.448 81.875 693.531 81.875H722.781V90Z" fill="black"/>
<path d="M471.125 90L488.021 44.112H493.205L510.037 90H504.085L492.693 56.912C492.565 56.5707 492.352 55.952 492.053 55.056C491.754 54.16 491.456 53.2427 491.157 52.304C490.901 51.3227 490.688 50.576 490.517 50.064C490.304 50.9173 490.069 51.792 489.813 52.688C489.6 53.5413 489.365 54.3307 489.109 55.056C488.896 55.7813 488.704 56.4 488.533 56.912L476.949 90H471.125Z" fill="#00C896"/>
<path d="M580.35 90V84.944H590.462C588.883 83.7493 587.347 82.256 585.854 80.464C584.361 78.6293 583.123 76.4533 582.142 73.936C581.203 71.4187 580.734 68.5813 580.734 65.424C580.734 61.2427 581.545 57.5093 583.166 54.224C584.787 50.9387 587.155 48.3573 590.27 46.48C593.385 44.56 597.182 43.6 601.662 43.6C606.185 43.6 610.003 44.5387 613.118 46.416C616.233 48.2933 618.601 50.8747 620.222 54.16C621.843 57.4453 622.654 61.1787 622.654 65.36C622.654 68.56 622.185 71.4187 621.246 73.936C620.307 76.4533 619.091 78.6293 617.598 80.464C616.147 82.256 614.611 83.7493 612.99 84.944H623.038V90H605.886V85.392C608.531 83.5147 610.643 81.5947 612.222 79.632C613.801 77.6693 614.931 75.5573 615.614 73.296C616.297 70.992 616.638 68.432 616.638 65.616C616.638 62.3733 616.105 59.472 615.038 56.912C613.971 54.352 612.329 52.3467 610.11 50.896C607.934 49.4027 605.118 48.656 601.662 48.656C598.249 48.656 595.433 49.4027 593.214 50.896C591.038 52.3467 589.417 54.352 588.35 56.912C587.326 59.472 586.814 62.3733 586.814 65.616C586.814 68.432 587.155 70.992 587.838 73.296C588.521 75.5573 589.63 77.6693 591.166 79.632C592.745 81.552 594.857 83.472 597.502 85.392V90H580.35Z" fill="black"/>
<path d="M580.35 90V84.944H590.462C588.883 83.7493 587.347 82.256 585.854 80.464C584.361 78.6293 583.123 76.4533 582.142 73.936C581.203 71.4187 580.734 68.5813 580.734 65.424C580.734 61.2427 581.545 57.5093 583.166 54.224C584.787 50.9387 587.155 48.3573 590.27 46.48C593.385 44.56 597.182 43.6 601.662 43.6C606.185 43.6 610.003 44.5387 613.118 46.416C616.233 48.2933 618.601 50.8747 620.222 54.16C621.843 57.4453 622.654 61.1787 622.654 65.36C622.654 68.56 622.185 71.4187 621.246 73.936C620.307 76.4533 619.091 78.6293 617.598 80.464C616.147 82.256 614.611 83.7493 612.99 84.944H623.038V90H605.886V85.392C608.531 83.5147 610.643 81.5947 612.222 79.632C613.801 77.6693 614.931 75.5573 615.614 73.296C616.297 70.992 616.638 68.432 616.638 65.616C616.638 62.3733 616.105 59.472 615.038 56.912C613.971 54.352 612.329 52.3467 610.11 50.896C607.934 49.4027 605.118 48.656 601.662 48.656C598.249 48.656 595.433 49.4027 593.214 50.896C591.038 52.3467 589.417 54.352 588.35 56.912C587.326 59.472 586.814 62.3733 586.814 65.616C586.814 68.432 587.155 70.992 587.838 73.296C588.521 75.5573 589.63 77.6693 591.166 79.632C592.745 81.552 594.857 83.472 597.502 85.392V90H580.35Z" fill="#00C896"/>
<path d="M354.398 151.281C354.398 152.987 354.099 154.556 353.5 155.988C352.914 157.421 352.1 158.658 351.059 159.699C350.017 160.728 348.78 161.535 347.348 162.121C345.915 162.707 344.359 163 342.68 163H328.969C328.604 163 328.266 162.935 327.953 162.805C327.641 162.674 327.367 162.499 327.133 162.277C326.911 162.043 326.736 161.77 326.605 161.457C326.475 161.145 326.41 160.806 326.41 160.441V137.551C326.41 137.199 326.475 136.867 326.605 136.555C326.736 136.242 326.911 135.969 327.133 135.734C327.367 135.5 327.641 135.318 327.953 135.188C328.266 135.057 328.604 134.992 328.969 134.992H342.68C344.359 134.992 345.915 135.285 347.348 135.871C348.78 136.457 350.017 137.271 351.059 138.312C352.1 139.341 352.914 140.578 353.5 142.023C354.099 143.456 354.398 145.018 354.398 146.711V151.281ZM349.32 146.711C349.32 145.721 349.158 144.816 348.832 143.996C348.52 143.176 348.07 142.479 347.484 141.906C346.898 141.32 346.195 140.871 345.375 140.559C344.568 140.233 343.669 140.07 342.68 140.07H331.488V157.922H342.68C343.669 157.922 344.568 157.766 345.375 157.453C346.195 157.128 346.898 156.678 347.484 156.105C348.07 155.52 348.52 154.823 348.832 154.016C349.158 153.195 349.32 152.284 349.32 151.281V146.711ZM382.406 151.555H366.371V146.438H382.406V151.555ZM384.691 163H366.371C365.668 163 364.9 162.876 364.066 162.629C363.233 162.382 362.458 161.978 361.742 161.418C361.039 160.845 360.447 160.109 359.965 159.211C359.496 158.299 359.262 157.186 359.262 155.871V137.551C359.262 137.199 359.327 136.867 359.457 136.555C359.587 136.242 359.763 135.969 359.984 135.734C360.219 135.5 360.492 135.318 360.805 135.188C361.117 135.057 361.456 134.992 361.82 134.992H384.691V140.07H364.34V155.871C364.34 156.535 364.516 157.043 364.867 157.395C365.219 157.746 365.733 157.922 366.41 157.922H384.691V163ZM417.641 134.992L404.379 162.004C404.171 162.421 403.858 162.753 403.441 163C403.038 163.26 402.589 163.391 402.094 163.391C401.612 163.391 401.163 163.26 400.746 163C400.342 162.753 400.03 162.421 399.809 162.004L386.566 134.992H392.25L402.094 155.168L411.977 134.992H417.641ZM443.539 151.555H427.504V146.438H443.539V151.555ZM445.824 163H427.504C426.801 163 426.033 162.876 425.199 162.629C424.366 162.382 423.591 161.978 422.875 161.418C422.172 160.845 421.579 160.109 421.098 159.211C420.629 158.299 420.395 157.186 420.395 155.871V137.551C420.395 137.199 420.46 136.867 420.59 136.555C420.72 136.242 420.896 135.969 421.117 135.734C421.352 135.5 421.625 135.318 421.938 135.188C422.25 135.057 422.589 134.992 422.953 134.992H445.824V140.07H425.473V155.871C425.473 156.535 425.648 157.043 426 157.395C426.352 157.746 426.866 157.922 427.543 157.922H445.824V163ZM476.469 163H453.305C452.94 163 452.602 162.935 452.289 162.805C451.977 162.674 451.703 162.499 451.469 162.277C451.247 162.043 451.072 161.77 450.941 161.457C450.811 161.145 450.746 160.806 450.746 160.441V134.992H455.824V157.922H476.469V163ZM509.164 151.672C509.164 153.378 508.871 154.947 508.285 156.379C507.699 157.811 506.885 159.048 505.844 160.09C504.802 161.132 503.565 161.945 502.133 162.531C500.714 163.104 499.164 163.391 497.484 163.391H490.609C488.93 163.391 487.374 163.104 485.941 162.531C484.509 161.945 483.272 161.132 482.23 160.09C481.189 159.048 480.368 157.811 479.77 156.379C479.184 154.947 478.891 153.378 478.891 151.672V146.32C478.891 144.628 479.184 143.065 479.77 141.633C480.368 140.188 481.189 138.951 482.23 137.922C483.272 136.88 484.509 136.066 485.941 135.48C487.374 134.895 488.93 134.602 490.609 134.602H497.484C499.164 134.602 500.714 134.895 502.133 135.48C503.565 136.066 504.802 136.88 505.844 137.922C506.885 138.951 507.699 140.188 508.285 141.633C508.871 143.065 509.164 144.628 509.164 146.32V151.672ZM504.086 146.32C504.086 145.318 503.923 144.413 503.598 143.605C503.285 142.785 502.836 142.089 502.25 141.516C501.677 140.93 500.98 140.48 500.16 140.168C499.353 139.842 498.461 139.68 497.484 139.68H490.609C489.62 139.68 488.715 139.842 487.895 140.168C487.087 140.48 486.391 140.93 485.805 141.516C485.219 142.089 484.763 142.785 484.438 143.605C484.125 144.413 483.969 145.318 483.969 146.32V151.672C483.969 152.674 484.125 153.586 484.438 154.406C484.763 155.214 485.219 155.91 485.805 156.496C486.391 157.069 487.087 157.518 487.895 157.844C488.715 158.156 489.62 158.312 490.609 158.312H497.445C498.435 158.312 499.333 158.156 500.141 157.844C500.961 157.518 501.664 157.069 502.25 156.496C502.836 155.91 503.285 155.214 503.598 154.406C503.923 153.586 504.086 152.674 504.086 151.672V146.32ZM542.094 146.711C542.094 147.87 541.951 148.905 541.664 149.816C541.378 150.728 540.987 151.535 540.492 152.238C540.01 152.928 539.451 153.521 538.812 154.016C538.174 154.51 537.504 154.914 536.801 155.227C536.111 155.539 535.408 155.767 534.691 155.91C533.988 156.053 533.324 156.125 532.699 156.125H521.215V151.047H532.699C533.35 150.995 533.936 150.865 534.457 150.656C534.991 150.435 535.447 150.142 535.824 149.777C536.202 149.413 536.495 148.977 536.703 148.469C536.911 147.948 537.016 147.362 537.016 146.711V144.406C536.951 143.768 536.814 143.182 536.605 142.648C536.397 142.115 536.111 141.659 535.746 141.281C535.395 140.904 534.965 140.611 534.457 140.402C533.949 140.181 533.363 140.07 532.699 140.07H521.254C520.577 140.07 520.062 140.246 519.711 140.598C519.359 140.949 519.184 141.457 519.184 142.121V163H514.105V142.121C514.105 140.819 514.34 139.712 514.809 138.801C515.29 137.889 515.883 137.154 516.586 136.594C517.302 136.034 518.077 135.63 518.91 135.383C519.743 135.122 520.512 134.992 521.215 134.992H532.699C533.845 134.992 534.874 135.142 535.785 135.441C536.697 135.728 537.497 136.118 538.188 136.613C538.891 137.095 539.483 137.655 539.965 138.293C540.46 138.931 540.863 139.602 541.176 140.305C541.501 140.995 541.736 141.698 541.879 142.414C542.022 143.117 542.094 143.781 542.094 144.406V146.711ZM579.047 163H573.93V146.32L564.926 162.16C564.704 162.564 564.392 162.87 563.988 163.078C563.598 163.286 563.174 163.391 562.719 163.391C562.276 163.391 561.859 163.286 561.469 163.078C561.091 162.87 560.792 162.564 560.57 162.16L551.527 146.32V163H546.449V137.16C546.449 136.574 546.618 136.053 546.957 135.598C547.309 135.142 547.764 134.836 548.324 134.68C548.598 134.615 548.871 134.595 549.145 134.621C549.418 134.634 549.678 134.693 549.926 134.797C550.186 134.888 550.421 135.025 550.629 135.207C550.837 135.376 551.013 135.585 551.156 135.832L562.719 155.93L574.281 135.832C574.581 135.337 574.991 134.986 575.512 134.777C576.046 134.569 576.599 134.536 577.172 134.68C577.719 134.836 578.168 135.142 578.52 135.598C578.871 136.053 579.047 136.574 579.047 137.16V163ZM607.992 151.555H591.957V146.438H607.992V151.555ZM610.277 163H591.957C591.254 163 590.486 162.876 589.652 162.629C588.819 162.382 588.044 161.978 587.328 161.418C586.625 160.845 586.033 160.109 585.551 159.211C585.082 158.299 584.848 157.186 584.848 155.871V137.551C584.848 137.199 584.913 136.867 585.043 136.555C585.173 136.242 585.349 135.969 585.57 135.734C585.805 135.5 586.078 135.318 586.391 135.188C586.703 135.057 587.042 134.992 587.406 134.992H610.277V140.07H589.926V155.871C589.926 156.535 590.102 157.043 590.453 157.395C590.805 157.746 591.319 157.922 591.996 157.922H610.277V163ZM643.188 160.832C643.188 161.197 643.116 161.535 642.973 161.848C642.842 162.16 642.66 162.434 642.426 162.668C642.204 162.889 641.938 163.065 641.625 163.195C641.312 163.326 640.98 163.391 640.629 163.391C640.316 163.391 639.997 163.332 639.672 163.215C639.359 163.098 639.079 162.909 638.832 162.648L620.277 143.273V163H615.199V137.16C615.199 136.639 615.342 136.171 615.629 135.754C615.928 135.324 616.306 135.005 616.762 134.797C617.243 134.602 617.738 134.556 618.246 134.66C618.754 134.751 619.19 134.986 619.555 135.363L638.109 154.719V134.992H643.188V160.832ZM674.418 140.07H663.227V163H658.148V140.07H646.938V134.992H674.418V140.07Z" fill="black"/>
</svg>
